<svg width="16" height="14" viewBox="0 0 16 14" fill="none" xmlns="http://www.w3.org/2000/svg">
<path d="M14.0206 2.17461L13.5524 2.6426L13.5526 2.64282L14.0206 2.17461ZM12.8392 1.38492L12.5858 1.99649L12.5858 1.99649L12.8392 1.38492ZM14.8103 3.35603L15.4219 3.10263L15.4219 3.10263L14.8103 3.35603ZM14.8103 6.14347L15.4219 6.39687L15.4219 6.39687L14.8103 6.14347ZM14.0206 7.32488L13.5526 6.85668L13.5525 6.85679L14.0206 7.32488ZM13.3189 8.02659L13.787 8.49469L13.787 8.49469L13.3189 8.02659ZM8.16863 13.1769L7.70054 13.645C7.95906 13.9035 8.37821 13.9035 8.63673 13.645L8.16863 13.1769ZM3.01836 8.02659L2.55027 8.49469L2.55027 8.49469L3.01836 8.02659ZM2.31666 7.32488L1.84856 7.79298L1.84856 7.79298L2.31666 7.32488ZM2.31666 2.17461L1.84856 1.70652L1.84856 1.70652L2.31666 2.17461ZM4.89179 1.10796L4.89179 1.76995L4.89179 1.10796ZM7.46692 2.17461L6.99883 2.64271L6.99883 2.64271L7.46692 2.17461ZM8.16863 2.87632L7.70054 3.34442C7.95906 3.60294 8.37821 3.60294 8.63673 3.34442L8.16863 2.87632ZM8.87034 2.17461L9.33844 2.64271L9.33855 2.6426L8.87034 2.17461ZM10.0518 1.38492L10.3052 1.99649L10.0518 1.38492ZM14.4888 1.70663C14.0892 1.30685 13.6148 0.989719 13.0926 0.77335L12.5858 1.99649C12.9473 2.14628 13.2758 2.36583 13.5524 2.6426L14.4888 1.70663ZM15.4219 3.10263C15.2055 2.58044 14.8884 2.106 14.4886 1.70641L13.5526 2.64282C13.8294 2.91946 14.0489 3.24792 14.1987 3.60943L15.4219 3.10263ZM15.7496 4.74975C15.7496 4.18451 15.6382 3.62481 15.4219 3.10263L14.1987 3.60943C14.3485 3.97095 14.4256 4.35843 14.4256 4.74975H15.7496ZM15.4219 6.39687C15.6382 5.87469 15.7496 5.31499 15.7496 4.74975H14.4256C14.4256 5.14107 14.3485 5.52855 14.1987 5.89007L15.4219 6.39687ZM14.4886 7.79309C14.8884 7.3935 15.2055 6.91906 15.4219 6.39687L14.1987 5.89007C14.0489 6.25158 13.8294 6.58004 13.5526 6.85668L14.4886 7.79309ZM13.787 8.49469L14.4887 7.79298L13.5525 6.85679L12.8508 7.5585L13.787 8.49469ZM8.63673 13.645L13.787 8.49469L12.8508 7.55849L7.70054 12.7088L8.63673 13.645ZM2.55027 8.49469L7.70054 13.645L8.63673 12.7088L3.48646 7.55849L2.55027 8.49469ZM1.84856 7.79298L2.55027 8.49469L3.48646 7.55849L2.78475 6.85679L1.84856 7.79298ZM0.588012 4.74975C0.588012 5.89118 1.04144 6.98587 1.84856 7.79298L2.78475 6.85679C2.22593 6.29797 1.91199 5.54004 1.91199 4.74975H0.588012ZM1.84856 1.70652C1.04144 2.51363 0.588012 3.60832 0.588012 4.74975H1.91199C1.91199 3.95946 2.22593 3.20153 2.78475 2.64271L1.84856 1.70652ZM4.89179 0.445971C3.75036 0.445971 2.65567 0.899403 1.84856 1.70652L2.78475 2.64271C3.34357 2.08389 4.1015 1.76995 4.89179 1.76995L4.89179 0.445971ZM7.93502 1.70652C7.12791 0.899403 6.03322 0.445971 4.89179 0.445971L4.89179 1.76995C5.68208 1.76995 6.44001 2.08389 6.99883 2.64271L7.93502 1.70652ZM8.63673 2.40823L7.93502 1.70652L6.99883 2.64271L7.70054 3.34442L8.63673 2.40823ZM8.40224 1.70652L7.70054 2.40823L8.63673 3.34442L9.33844 2.64271L8.40224 1.70652ZM9.79835 0.773351C9.27616 0.989719 8.80172 1.30685 8.40213 1.70663L9.33855 2.6426C9.61519 2.36583 9.94364 2.14628 10.3052 1.99649L9.79835 0.773351ZM11.4455 0.445617C10.8802 0.445617 10.3205 0.556982 9.79835 0.773351L10.3052 1.99649C10.6667 1.84669 11.0542 1.76959 11.4455 1.76959V0.445617ZM13.0926 0.773351C12.5704 0.556982 12.0107 0.445617 11.4455 0.445617V1.76959C11.8368 1.76959 12.2243 1.84669 12.5858 1.99649L13.0926 0.773351Z" fill="#717171"/>
</svg>
